<svg xmlns="http://www.w3.org/2000/svg" width="796.644" height="224.414" viewBox="0 0 796.644 224.414">
  <defs>
    <style>
      .cls-1 {
        fill: #fff;
      }
    </style>
  </defs>
  <path id="Path_9" data-name="Path 9" class="cls-1" d="M28.886,46.609q23.821,0,46.861,11.976,23.561,14.058,32.8,40.613a79.34,79.34,0,0,1,4.686,26.555V132q0,23.951-14.579,46.341-14.709,17.183-23.431,20.307-16.792,9.893-27.075,9.893,0,1.562-20.827,1.562H26.283q-21.738,0-44.779-14.579-32.8-24.472-32.8-67.689,0-23.3,13.538-46.341Q-14.07,48.432,28.886,46.609ZM-38.8,128.877a71.03,71.03,0,0,0,16.662,46.341Q-11.6,186.933,5.976,193.962q15.23,4.165,23.951,4.165h2.6q21.738,0,44.258-15.1Q90.2,170.4,93.971,161.159a83.8,83.8,0,0,0,7.29-33.324q0-14.97-7.81-32.8Q81.215,72.9,58.044,64.312A96.058,96.058,0,0,0,31.49,59.106Q13.917,59.106-6,69q-19.4,11.976-27.6,31.762Q-37.371,110-38.8,128.877ZM225.183,46.609h56.234v12.5H221.539q-34.756,0-47.9,10.414Q155.022,78.761,145,107.529a130.4,130.4,0,0,0-3.124,20.827,105.444,105.444,0,0,0,5.207,27.6q10.414,24.863,33.324,35.927,13.017,6.248,41.655,6.248h59.358V210.1H207.48q-38.14,0-63-31.241-8.07-11.585-12.5-28.638l-3.124-18.745q0-19.656,8.852-41.655l6.769-10.934q13.8-20.307,40.093-28.117Q194.2,46.609,225.183,46.609Zm83.83,36.448h.521q11.195-19.916,35.927-30.2,14.449-6.769,35.927-6.769h2.083q22.129,0,47.9,16.662,18.484,15.62,23.951,31.762,6.248,10.674,6.248,36.968V210.1H449.6V129.4q0-48.423-44.779-66.647-9.5-3.254-25.513-4.165-26.685,0-49.465,18.224l-5.207,5.728q-15.62,18.354-15.62,52.589V210.1H297.038V-14.311h11.976ZM556.858,46.609q49.465,0,73.416,36.968V46.089h11.455V210.1H630.274V173.656q-14.449,23.17-45.3,33.324Q573.65,210.1,566.751,210.1h-4.686q-30.72,0-51.027-14.579-20.567-14.058-29.158-39.572-4.686-16.141-4.686-28.117,0-18.875,10.414-41.134,16.4-27.726,47.9-36.968Q551.261,46.609,556.858,46.609Zm-66.647,79.664v1.041l-.521.521.521.521v2.083q0,38.921,34.886,58.837,17.443,8.331,32.8,8.331h3.124q31.5,0,54.151-24.993,14.579-20.7,14.579-44.779,0-32.8-25.513-54.151-20.827-14.579-43.217-14.579H557.9q-25.383,0-48.423,19.265Q490.211,99.2,490.211,126.274ZM669.325,45.568h71.333V57.544H669.325v67.168q.26,14.189,7.29,31.762,4.035,10.674,22.389,27.6,22.65,14.058,44.779,14.058h1.562V210.1h-.521q-38.53,0-65.606-27.6-21.869-25.513-21.869-63V-13.79h11.976Z" transform="translate(51.299 14.311)"/>
</svg>
